<svg width="536" height="297" viewBox="0 0 536 297" fill="none" xmlns="http://www.w3.org/2000/svg">
<path d="M105.742 241V205.09H12.0516V179.17L101.152 52H137.872V176.74H163.522V205.09H137.872V241H105.742ZM46.8816 176.74H107.632V87.64L46.8816 176.74ZM468.681 241V205.09H374.991V179.17L464.091 52H500.811V176.74H526.461V205.09H500.811V241H468.681ZM409.821 176.74H470.571V87.64L409.821 176.74Z" fill="#F4EFE7"/>
<path d="M268.08 49C285 49 299.49 53.1401 311.55 61.4199C323.79 69.5199 333.15 80.9501 339.63 95.71C346.29 110.29 349.62 127.3 349.62 146.74C349.62 166.18 346.29 183.28 339.63 198.04C333.15 212.62 323.79 224.05 311.55 232.33C299.49 240.43 285 244.48 268.08 244.48C250.98 244.48 236.31 240.43 224.07 232.33C211.83 224.05 202.38 212.62 195.72 198.04C189.24 183.28 186 166.18 186 146.74C186 127.3 189.24 110.29 195.72 95.71C202.38 80.95 211.83 69.5199 224.07 61.4199C236.31 53.1401 250.98 49 268.08 49ZM233.92 71.5176C232.83 70.9091 231.487 71.3404 230.904 72.4307C229.841 74.3836 236.098 89.5953 230.752 92.6631C228.573 93.9055 227.965 96.6948 229.891 98.3174C236.757 104.149 230.321 106.38 227.078 108.23C226.192 108.738 226.014 109.93 226.622 110.767C229.536 114.773 235.542 118.727 237.163 120.527C237.518 120.933 237.441 121.618 237.062 121.998C233.945 125.015 233.261 122.657 228.244 122.606C227.864 122.606 227.509 122.936 227.585 123.291C228.066 125.877 235.921 131.962 238.48 131.404C239.317 135.486 233.412 136.551 231.689 138.148C231.234 138.554 231.36 139.34 231.791 139.771C235.465 143.448 239.545 143.676 241.647 143.676C241.571 145.603 237.746 148.772 236.175 149.482C235.719 149.685 235.364 150.116 235.49 150.598C236.2 152.88 242.762 154.35 244.46 153.463C246.942 156.962 240.608 159.447 244.13 163.072C247.93 165.354 248.97 166.013 249.856 168.6C254.518 177.727 238.758 190.835 226.242 196.083C221.327 198.137 218.312 205.743 229.587 204.855L229.638 204.906C226.445 210.231 225.888 216.062 231.893 214.389C230.448 219.003 228.624 226.812 233.159 224.962C240.025 215.784 245.296 209.648 252.44 201.89C257.204 197.529 255.152 205.211 257.103 208.405C257.609 209.242 258.826 209.344 259.484 208.583C267.769 199.05 273.546 191.418 291.079 187.944C299.364 186.296 305.42 175.242 305.876 166.19C306.053 162.818 306.636 159.447 308.131 156.404C312.058 148.443 313.477 148.797 317.176 144.462C321.356 139.569 326.778 134.245 327.843 131.811C327.057 129.884 323.307 134.447 317.733 133.737C312.742 133.103 300.276 131.531 295.513 143.523C294.875 142.477 279.98 117.509 269.872 105.188C261.714 95.2245 237.088 73.268 233.92 71.5176Z" fill="#DA1F26"/>
</svg>
