<svg width="209" height="24" viewBox="0 0 209 24" fill="none" xmlns="http://www.w3.org/2000/svg">
<path opacity="0.5" d="M1.72633 4.90909H3.61837L8.06723 15.7756H8.22064L12.6695 4.90909H14.5616V18H13.0786V8.05398H12.9508L8.85985 18H7.42803L3.33712 8.05398H3.20928V18H1.72633V4.90909ZM19.7047 18.2301C19.0825 18.2301 18.5179 18.1129 18.0108 17.8786C17.5037 17.6399 17.101 17.2969 16.8027 16.8494C16.5044 16.3977 16.3552 15.8523 16.3552 15.2131C16.3552 14.6506 16.466 14.1946 16.6876 13.8452C16.9092 13.4915 17.2054 13.2145 17.5761 13.0142C17.9468 12.8139 18.3559 12.6648 18.8034 12.5668C19.2551 12.4645 19.7089 12.3835 20.1649 12.3239C20.7615 12.2472 21.2451 12.1896 21.6159 12.1513C21.9909 12.1087 22.2636 12.0384 22.4341 11.9403C22.6088 11.8423 22.6961 11.6719 22.6961 11.429V11.3778C22.6961 10.7472 22.5235 10.2571 22.1784 9.90767C21.8375 9.55824 21.3197 9.38352 20.6251 9.38352C19.9049 9.38352 19.3403 9.54119 18.9312 9.85653C18.5221 10.1719 18.2345 10.5085 18.0683 10.8665L16.6365 10.3551C16.8922 9.75852 17.2331 9.29403 17.6592 8.96165C18.0896 8.625 18.5583 8.39062 19.0655 8.25852C19.5768 8.12216 20.0797 8.05398 20.574 8.05398C20.8893 8.05398 21.2515 8.09233 21.6606 8.16903C22.074 8.24148 22.4724 8.39276 22.8559 8.62287C23.2437 8.85298 23.5655 9.20028 23.8211 9.66477C24.0768 10.1293 24.2047 10.7514 24.2047 11.5312V18H22.6961V16.6705H22.6194C22.5172 16.8835 22.3467 17.1115 22.1081 17.3544C21.8694 17.5973 21.552 17.804 21.1557 17.9744C20.7593 18.1449 20.2757 18.2301 19.7047 18.2301ZM19.9348 16.875C20.5314 16.875 21.0342 16.7578 21.4433 16.5234C21.8566 16.2891 22.1677 15.9865 22.3765 15.6158C22.5896 15.245 22.6961 14.8551 22.6961 14.446V13.0653C22.6322 13.142 22.4916 13.2124 22.2743 13.2763C22.0612 13.3359 21.814 13.3892 21.5328 13.4361C21.2558 13.4787 20.9852 13.517 20.721 13.5511C20.461 13.581 20.2501 13.6065 20.0882 13.6278C19.6961 13.679 19.3297 13.7621 18.9887 13.8771C18.6521 13.9879 18.3794 14.1562 18.1706 14.3821C17.966 14.6037 17.8637 14.9062 17.8637 15.2898C17.8637 15.8139 18.0576 16.2102 18.4454 16.4787C18.8375 16.7429 19.3339 16.875 19.9348 16.875ZM29.9454 18.2045C29.1272 18.2045 28.4049 17.9979 27.7785 17.5845C27.1521 17.1669 26.662 16.5788 26.3083 15.8203C25.9546 15.0575 25.7778 14.1562 25.7778 13.1165C25.7778 12.0852 25.9546 11.1903 26.3083 10.4318C26.662 9.6733 27.1542 9.08736 27.7849 8.67401C28.4156 8.26065 29.1443 8.05398 29.971 8.05398C30.6102 8.05398 31.1152 8.16051 31.4859 8.37358C31.8609 8.58239 32.1464 8.82102 32.3424 9.08949C32.5427 9.35369 32.6983 9.57102 32.8091 9.74148H32.9369V4.90909H34.4454V18H32.988V16.4915H32.8091C32.6983 16.6705 32.5406 16.8963 32.336 17.169C32.1315 17.4375 31.8396 17.6783 31.4603 17.8913C31.0811 18.1001 30.5761 18.2045 29.9454 18.2045ZM30.15 16.8494C30.7551 16.8494 31.2664 16.6918 31.6841 16.3764C32.1017 16.0568 32.4191 15.6158 32.6365 15.0533C32.8538 14.4865 32.9625 13.8324 32.9625 13.0909C32.9625 12.358 32.8559 11.7166 32.6429 11.1669C32.4298 10.6129 32.1145 10.1825 31.6968 9.87571C31.2792 9.56463 30.7636 9.40909 30.15 9.40909C29.5108 9.40909 28.9781 9.57315 28.5519 9.90128C28.1301 10.2251 27.8126 10.6662 27.5995 11.2244C27.3907 11.7784 27.2863 12.4006 27.2863 13.0909C27.2863 13.7898 27.3929 14.4247 27.6059 14.9957C27.8233 15.5625 28.1429 16.0142 28.5647 16.3509C28.9909 16.6832 29.5193 16.8494 30.15 16.8494ZM40.8142 18.2045C39.8682 18.2045 39.0521 17.9957 38.366 17.5781C37.6842 17.1562 37.1579 16.5682 36.7872 15.8139C36.4207 15.0554 36.2375 14.1733 36.2375 13.1676C36.2375 12.1619 36.4207 11.2756 36.7872 10.5085C37.1579 9.73722 37.6736 9.13636 38.3341 8.70597C38.9989 8.27131 39.7744 8.05398 40.6608 8.05398C41.1721 8.05398 41.6771 8.1392 42.1757 8.30966C42.6743 8.48011 43.1281 8.7571 43.5372 9.14062C43.9463 9.51989 44.2723 10.0227 44.5152 10.6491C44.7581 11.2756 44.8795 12.0469 44.8795 12.9631V13.6023H37.3114V12.2983H43.3454C43.3454 11.7443 43.2346 11.25 43.0131 10.8153C42.7957 10.3807 42.4846 10.0376 42.0798 9.78622C41.6793 9.5348 41.2062 9.40909 40.6608 9.40909C40.0599 9.40909 39.54 9.55824 39.1011 9.85653C38.6665 10.1506 38.332 10.5341 38.0976 11.0071C37.8632 11.4801 37.746 11.9872 37.746 12.5284V13.3977C37.746 14.1392 37.8739 14.7678 38.1295 15.2834C38.3895 15.7947 38.7496 16.1847 39.2098 16.4531C39.67 16.7173 40.2048 16.8494 40.8142 16.8494C41.2105 16.8494 41.5685 16.794 41.8881 16.6832C42.2119 16.5682 42.491 16.3977 42.7254 16.1719C42.9598 15.9418 43.1409 15.6562 43.2687 15.3153L44.7261 15.7244C44.5727 16.2188 44.3149 16.6534 43.9527 17.0284C43.5905 17.3991 43.143 17.6889 42.6104 17.8977C42.0777 18.1023 41.479 18.2045 40.8142 18.2045ZM53.0212 18L50.0297 8.18182H51.615L53.7371 15.6989H53.8394L55.936 8.18182H57.5468L59.6178 15.6733H59.7201L61.8422 8.18182H63.4275L60.436 18H58.953L56.8053 10.4574H56.6519L54.5042 18H53.0212ZM64.7018 18V8.18182H66.2103V18H64.7018ZM65.4688 6.54545C65.1748 6.54545 64.9212 6.44531 64.7082 6.24503C64.4994 6.04474 64.395 5.80398 64.395 5.52273C64.395 5.24148 64.4994 5.00071 64.7082 4.80043C64.9212 4.60014 65.1748 4.5 65.4688 4.5C65.7629 4.5 66.0143 4.60014 66.2231 4.80043C66.4362 5.00071 66.5427 5.24148 66.5427 5.52273C66.5427 5.80398 66.4362 6.04474 66.2231 6.24503C66.0143 6.44531 65.7629 6.54545 65.4688 6.54545ZM72.5231 8.18182V9.46023H67.4351V8.18182H72.5231ZM68.918 5.82955H70.4266V15.1875C70.4266 15.6136 70.4883 15.9332 70.6119 16.1463C70.7398 16.3551 70.9017 16.4957 71.0977 16.5682C71.298 16.6364 71.5089 16.6705 71.7305 16.6705C71.8967 16.6705 72.0331 16.6619 72.1396 16.6449C72.2462 16.6236 72.3314 16.6065 72.3953 16.5938L72.7021 17.9489C72.5999 17.9872 72.4571 18.0256 72.2739 18.0639C72.0906 18.1065 71.8584 18.1278 71.5771 18.1278C71.151 18.1278 70.7334 18.0362 70.3243 17.853C69.9195 17.6697 69.5828 17.3906 69.3143 17.0156C69.0501 16.6406 68.918 16.1676 68.918 15.5966V5.82955ZM75.7918 12.0938V18H74.2833V4.90909H75.7918V9.71591H75.9196C76.1497 9.20881 76.4949 8.80611 76.9551 8.50781C77.4196 8.20526 78.0375 8.05398 78.8088 8.05398C79.4779 8.05398 80.0638 8.18821 80.5666 8.45668C81.0695 8.72088 81.4594 9.12784 81.7364 9.67756C82.0176 10.223 82.1583 10.9176 82.1583 11.7614V18H80.6497V11.8636C80.6497 11.0838 80.4473 10.4808 80.0425 10.0547C79.6419 9.62429 79.0858 9.40909 78.3742 9.40909C77.8799 9.40909 77.4367 9.51349 77.0446 9.7223C76.6568 9.93111 76.35 10.2358 76.1242 10.6364C75.9026 11.0369 75.7918 11.5227 75.7918 12.0938ZM110.458 18V4.90909H111.966V9.74148H112.094C112.205 9.57102 112.358 9.35369 112.554 9.08949C112.754 8.82102 113.04 8.58239 113.411 8.37358C113.786 8.16051 114.293 8.05398 114.932 8.05398C115.759 8.05398 116.487 8.26065 117.118 8.67401C117.749 9.08736 118.241 9.6733 118.595 10.4318C118.948 11.1903 119.125 12.0852 119.125 13.1165C119.125 14.1562 118.948 15.0575 118.595 15.8203C118.241 16.5788 117.751 17.1669 117.124 17.5845C116.498 17.9979 115.776 18.2045 114.958 18.2045C114.327 18.2045 113.822 18.1001 113.443 17.8913C113.063 17.6783 112.771 17.4375 112.567 17.169C112.362 16.8963 112.205 16.6705 112.094 16.4915H111.915V18H110.458ZM111.941 13.0909C111.941 13.8324 112.049 14.4865 112.267 15.0533C112.484 15.6158 112.801 16.0568 113.219 16.3764C113.637 16.6918 114.148 16.8494 114.753 16.8494C115.384 16.8494 115.91 16.6832 116.332 16.3509C116.758 16.0142 117.078 15.5625 117.291 14.9957C117.508 14.4247 117.617 13.7898 117.617 13.0909C117.617 12.4006 117.51 11.7784 117.297 11.2244C117.088 10.6662 116.771 10.2251 116.345 9.90128C115.923 9.57315 115.392 9.40909 114.753 9.40909C114.139 9.40909 113.624 9.56463 113.206 9.87571C112.789 10.1825 112.473 10.6129 112.26 11.1669C112.047 11.7166 111.941 12.358 111.941 13.0909ZM121.333 21.6818C121.077 21.6818 120.849 21.6605 120.649 21.6179C120.449 21.5795 120.31 21.5412 120.233 21.5028L120.617 20.1733C120.983 20.267 121.307 20.3011 121.588 20.2756C121.87 20.25 122.119 20.1243 122.336 19.8984C122.558 19.6768 122.76 19.3168 122.944 18.8182L123.225 18.0511L119.594 8.18182H121.23L123.941 16.0057H124.043L126.753 8.18182H128.39L124.222 19.4318C124.034 19.9389 123.802 20.3587 123.525 20.6911C123.248 21.0277 122.926 21.277 122.56 21.4389C122.198 21.6009 121.789 21.6818 121.333 21.6818Z" fill="white"/>
<path d="M137.625 18H133.585V4.90909H137.804C139.074 4.90909 140.161 5.17116 141.064 5.69531C141.967 6.2152 142.66 6.96307 143.141 7.93892C143.623 8.91051 143.864 10.0739 143.864 11.429C143.864 12.7926 143.621 13.9666 143.135 14.951C142.649 15.9311 141.942 16.6854 141.013 17.2138C140.084 17.7379 138.955 18 137.625 18ZM135.17 16.5938H137.523C138.605 16.5938 139.502 16.3849 140.214 15.9673C140.925 15.5497 141.456 14.9553 141.805 14.1839C142.155 13.4126 142.33 12.4943 142.33 11.429C142.33 10.3722 142.157 9.46236 141.812 8.69957C141.467 7.93253 140.951 7.34446 140.265 6.93537C139.579 6.52202 138.724 6.31534 137.702 6.31534H135.17V16.5938ZM150.023 18H145.983V4.90909H150.201C151.471 4.90909 152.558 5.17116 153.461 5.69531C154.365 6.2152 155.057 6.96307 155.539 7.93892C156.02 8.91051 156.261 10.0739 156.261 11.429C156.261 12.7926 156.018 13.9666 155.532 14.951C155.047 15.9311 154.339 16.6854 153.41 17.2138C152.481 17.7379 151.352 18 150.023 18ZM147.568 16.5938H149.92C151.003 16.5938 151.9 16.3849 152.611 15.9673C153.323 15.5497 153.853 14.9553 154.203 14.1839C154.552 13.4126 154.727 12.4943 154.727 11.429C154.727 10.3722 154.554 9.46236 154.209 8.69957C153.864 7.93253 153.348 7.34446 152.662 6.93537C151.976 6.52202 151.122 6.31534 150.099 6.31534H147.568V16.5938ZM158.449 18.1023C158.134 18.1023 157.863 17.9893 157.637 17.7635C157.411 17.5376 157.298 17.267 157.298 16.9517C157.298 16.6364 157.411 16.3658 157.637 16.1399C157.863 15.9141 158.134 15.8011 158.449 15.8011C158.764 15.8011 159.035 15.9141 159.261 16.1399C159.487 16.3658 159.6 16.6364 159.6 16.9517C159.6 17.1605 159.546 17.3523 159.44 17.527C159.337 17.7017 159.199 17.8423 159.024 17.9489C158.854 18.0511 158.662 18.1023 158.449 18.1023ZM172.352 4.90909V18H170.818L163.684 7.72159H163.556V18H161.971V4.90909H163.505L170.664 15.2131H170.792V4.90909H172.352ZM173.859 4.90909H175.674L179.305 11.0199H179.458L183.089 4.90909H184.904L180.174 12.6051V18H178.589V12.6051L173.859 4.90909ZM196.333 9H194.748C194.654 8.54403 194.49 8.14347 194.256 7.7983C194.026 7.45312 193.745 7.16335 193.412 6.92898C193.084 6.69034 192.72 6.51136 192.319 6.39205C191.919 6.27273 191.501 6.21307 191.066 6.21307C190.274 6.21307 189.556 6.41335 188.912 6.81392C188.273 7.21449 187.764 7.80469 187.385 8.58452C187.01 9.36435 186.822 10.321 186.822 11.4545C186.822 12.5881 187.01 13.5447 187.385 14.3246C187.764 15.1044 188.273 15.6946 188.912 16.0952C189.556 16.4957 190.274 16.696 191.066 16.696C191.501 16.696 191.919 16.6364 192.319 16.517C192.72 16.3977 193.084 16.2209 193.412 15.9865C193.745 15.7479 194.026 15.456 194.256 15.1108C194.49 14.7614 194.654 14.3608 194.748 13.9091H196.333C196.214 14.5781 195.997 15.1768 195.681 15.7053C195.366 16.2337 194.974 16.6832 194.505 17.054C194.037 17.4205 193.51 17.6996 192.926 17.8913C192.347 18.0831 191.727 18.179 191.066 18.179C189.95 18.179 188.957 17.9062 188.088 17.3608C187.218 16.8153 186.534 16.0398 186.036 15.0341C185.537 14.0284 185.288 12.8352 185.288 11.4545C185.288 10.0739 185.537 8.88068 186.036 7.875C186.534 6.86932 187.218 6.09375 188.088 5.5483C188.957 5.00284 189.95 4.73011 191.066 4.73011C191.727 4.73011 192.347 4.82599 192.926 5.01776C193.51 5.20952 194.037 5.49077 194.505 5.86151C194.974 6.22798 195.366 6.67543 195.681 7.20384C195.997 7.72798 196.214 8.3267 196.333 9ZM201.014 12.1449V7.42756H203.405C203.596 7.42756 203.805 7.48295 204.031 7.59375C204.257 7.70028 204.449 7.86648 204.606 8.09233C204.768 8.31392 204.849 8.59517 204.849 8.93608C204.849 9.28125 204.766 9.57528 204.6 9.81818C204.434 10.0568 204.231 10.2379 203.993 10.3615C203.758 10.4851 203.537 10.5469 203.328 10.5469H201.602V9.77983H203.008C203.149 9.77983 203.3 9.70952 203.462 9.56889C203.628 9.42827 203.712 9.21733 203.712 8.93608C203.712 8.64631 203.628 8.45028 203.462 8.34801C203.3 8.24574 203.158 8.1946 203.034 8.1946H202.05V12.1449H201.014ZM203.865 9.92045L205.041 12.1449H203.903L202.753 9.92045H203.865ZM202.804 14.9574C202.096 14.9574 201.434 14.8253 200.816 14.5611C200.198 14.2969 199.655 13.9304 199.186 13.4616C198.717 12.9929 198.351 12.4496 198.087 11.8317C197.822 11.2138 197.69 10.5511 197.69 9.84375C197.69 9.13636 197.822 8.47372 198.087 7.85582C198.351 7.23793 198.717 6.6946 199.186 6.22585C199.655 5.7571 200.198 5.39062 200.816 5.12642C201.434 4.86222 202.096 4.73011 202.804 4.73011C203.511 4.73011 204.174 4.86222 204.792 5.12642C205.41 5.39062 205.953 5.7571 206.422 6.22585C206.891 6.6946 207.257 7.23793 207.521 7.85582C207.785 8.47372 207.917 9.13636 207.917 9.84375C207.917 10.5511 207.785 11.2138 207.521 11.8317C207.257 12.4496 206.891 12.9929 206.422 13.4616C205.953 13.9304 205.41 14.2969 204.792 14.5611C204.174 14.8253 203.511 14.9574 202.804 14.9574ZM202.804 13.7301C203.52 13.7301 204.172 13.5554 204.76 13.206C205.348 12.8565 205.817 12.3878 206.166 11.7997C206.516 11.2116 206.69 10.5597 206.69 9.84375C206.69 9.12784 206.516 8.47585 206.166 7.88778C205.817 7.29972 205.348 6.83097 204.76 6.48153C204.172 6.1321 203.52 5.95739 202.804 5.95739C202.088 5.95739 201.436 6.1321 200.848 6.48153C200.26 6.83097 199.791 7.29972 199.442 7.88778C199.092 8.47585 198.917 9.12784 198.917 9.84375C198.917 10.5597 199.092 11.2116 199.442 11.7997C199.791 12.3878 200.26 12.8565 200.848 13.206C201.436 13.5554 202.088 13.7301 202.804 13.7301Z" fill="white"/>
<path d="M90.3151 14.0934L95.1602 18.9385L105.254 8.84494L100.409 3.9999L90.3151 14.0934Z" fill="#DA1F26"/>
<path d="M89.845 4.06221L85 8.90723L95.0935 19.0008L99.9386 14.1557L89.845 4.06221Z" fill="#DA1F26"/>
</svg>
