<svg width="1536" height="136" viewBox="0 0 1536 136" fill="none" xmlns="http://www.w3.org/2000/svg">
<g clip-path="url(#clip0_9635_8848)">
<path d="M179.1 135.51H152.867C148.24 135.51 145.353 133.984 141.491 131.271L95.391 92.3644H36.0049C34.8587 92.3644 34.0947 93.1273 34.0947 94.2716V128.728C34.0947 132.967 31.3779 135.467 27.3453 135.467H5.18689C0.941991 135.467 -1.5625 132.967 -1.5625 128.728V7.43018C-1.5625 3.19195 0.941991 0.691406 5.18689 0.691406H129.944C171.799 0.691406 188.779 24.3831 188.779 46.5067C188.779 66.7231 174.516 88.2957 140.175 91.7711L182.029 127.203C186.826 131.229 185.51 135.467 179.143 135.467L179.1 135.51ZM36.0049 58.1195H127.78C146.287 58.1195 152.06 56.2123 152.06 46.5491C152.06 36.886 146.287 34.8092 127.78 34.8092H36.0049C34.8587 34.8092 34.0947 35.5721 34.0947 36.7164V56.1699C34.0947 57.3142 34.8587 58.0771 36.0049 58.0771V58.1195Z" fill="#F4EFE7"/>
<path d="M231.32 128.771V7.47315C231.32 3.23492 233.825 0.734375 238.07 0.734375H403.324C407.356 0.734375 410.073 3.23492 410.073 7.47315V28.071C410.073 32.3092 407.356 34.8097 403.324 34.8097H268.93C267.784 34.8097 267.02 35.5726 267.02 36.7169V51.3388C267.02 52.4832 267.784 53.2461 268.93 53.2461H393.9C398.145 53.2461 400.649 55.9586 400.649 60.1968V77.3192C400.649 81.5575 398.145 84.2699 393.9 84.2699H268.93C267.784 84.2699 267.02 85.0328 267.02 86.1771V99.2733C267.02 100.418 267.784 101.18 268.93 101.18H403.324C407.356 101.18 410.073 103.681 410.073 107.919V128.729C410.073 132.967 407.356 135.468 403.324 135.468H238.07C233.825 135.468 231.32 132.967 231.32 128.729V128.771Z" fill="#F4EFE7"/>
<path d="M457.269 128.771V7.47315C457.269 3.23492 459.774 0.734375 464.018 0.734375H486.177C490.209 0.734375 492.926 3.23492 492.926 7.47315V99.3157C492.926 100.46 493.69 101.223 494.836 101.223H622.098C626.343 101.223 628.848 103.723 628.848 107.962V128.771C628.848 133.01 626.343 135.51 622.098 135.51H463.976C459.731 135.51 457.227 133.01 457.227 128.771H457.269Z" fill="#F4EFE7"/>
<path d="M677.082 128.771V7.47315C677.082 3.23492 679.587 0.734375 683.831 0.734375H849.085C853.118 0.734375 855.835 3.23492 855.835 7.47315V28.071C855.835 32.3092 853.118 34.8097 849.085 34.8097H714.692C713.546 34.8097 712.782 35.5726 712.782 36.7169V51.3388C712.782 52.4832 713.546 53.2461 714.692 53.2461H839.662C843.907 53.2461 846.411 55.9586 846.411 60.1968V77.3192C846.411 81.5575 843.907 84.2699 839.662 84.2699H714.692C713.546 84.2699 712.782 85.0328 712.782 86.1771V99.2733C712.782 100.418 713.546 101.18 714.692 101.18H849.085C853.118 101.18 855.835 103.681 855.835 107.919V128.729C855.835 132.967 853.118 135.468 849.085 135.468H683.831C679.587 135.468 677.082 132.967 677.082 128.729V128.771Z" fill="#F4EFE7"/>
<path d="M1103.97 135.509H1075.24C1071.76 135.509 1068.87 134.365 1067.13 131.271L1051.51 108.554H948.696L933.075 131.271C931.164 134.365 928.448 135.509 924.967 135.509H896.229C890.626 135.509 888.716 131.864 891.984 127.414L979.556 4.5478C981.891 1.45389 984.395 0.30957 988.046 0.30957H1012.16C1015.81 0.30957 1018.31 1.45389 1020.65 4.5478L1108.01 127.414C1111.49 131.864 1109.54 135.509 1103.97 135.509ZM1031.47 79.6493L1000.23 34.3849L968.774 79.6493H1031.47Z" fill="#F4EFE7"/>
<path d="M1133.23 122.626C1129.75 120.295 1128.77 115.506 1131.11 111.649L1138.62 98.9346C1140.36 95.6712 1144.99 95.2898 1148.64 96.8155C1156.92 100.291 1188.54 104.317 1228.1 104.317H1230.44C1270.72 104.317 1280.95 99.316 1280.95 94.8659C1280.95 88.7205 1262.06 87.5338 1223.69 83.8889C1159.84 77.913 1129.58 71.1742 1129.58 41.1251C1129.58 9.16884 1162.18 -1.63867 1215.03 -1.63867H1219.82C1271.91 -1.63867 1297.72 8.95688 1307.18 14.7209C1311.64 17.4334 1311.64 20.4849 1308.71 25.8675L1300.82 40.4894C1298.69 44.1342 1295.04 43.5833 1291.35 42.0151C1281.5 38.5398 1257.99 31.0381 1222.12 31.0381H1217.28C1171.39 31.0381 1166.17 36.8021 1166.17 40.2774C1166.17 46.8043 1183.32 48.3725 1226.15 52.7803C1268 56.6371 1318.35 58.7562 1318.35 94.5693C1318.35 126.144 1280.57 137.714 1229.25 137.714H1226.91C1168.29 137.714 1143.03 128.857 1133.19 122.499L1133.23 122.626Z" fill="#F4EFE7"/>
<path d="M1358.84 128.771V7.47315C1358.84 3.23492 1361.35 0.734375 1365.59 0.734375H1530.85C1534.88 0.734375 1537.6 3.23492 1537.6 7.47315V28.071C1537.6 32.3092 1534.88 34.8097 1530.85 34.8097H1396.45C1395.31 34.8097 1394.54 35.5726 1394.54 36.7169V51.3388C1394.54 52.4832 1395.31 53.2461 1396.45 53.2461H1521.42C1525.67 53.2461 1528.17 55.9586 1528.17 60.1968V77.3192C1528.17 81.5575 1525.67 84.2699 1521.42 84.2699H1396.45C1395.31 84.2699 1394.54 85.0328 1394.54 86.1771V99.2733C1394.54 100.418 1395.31 101.18 1396.45 101.18H1530.85C1534.88 101.18 1537.6 103.681 1537.6 107.919V128.729C1537.6 132.967 1534.88 135.468 1530.85 135.468H1365.59C1361.35 135.468 1358.84 132.967 1358.84 128.729V128.771Z" fill="#F4EFE7"/>
</g>
<defs>
<clipPath id="clip0_9635_8848">
<rect width="1536" height="136" fill="white"/>
</clipPath>
</defs>
</svg>
