<svg preserveAspectRatio="none" overflow="visible" style="display: block;" width="251.001" height="183.625" viewBox="0 0 251.001 183.625" fill="none" xmlns="http://www.w3.org/2000/svg">
<g id="trinity-university-seeklogo 3">
<path id="Vector" d="M108.756 23.7933C112.886 22.0074 117.351 21.0029 121.815 20.7797C127.284 20.3332 132.642 20.8913 137.999 22.119C141.906 23.1236 145.478 25.021 148.38 27.6998C150.724 29.9321 152.621 32.4992 153.849 35.5128C155.411 39.3077 156.304 43.3258 156.639 47.4556C156.974 52.4783 157.086 57.5009 156.974 62.412C156.974 67.4346 156.528 72.4573 155.411 77.3683C154.63 81.0516 153.067 84.5117 150.835 87.5253C148.603 90.5389 145.589 92.8828 142.241 94.4454C138.223 96.2312 133.981 97.2358 129.74 97.459C129.628 83.2839 129.517 69.1088 129.517 54.9338C129.517 54.3757 129.517 53.9292 129.628 53.3712L131.079 42.6562H119.918C120.476 46.4511 121.034 50.3576 121.481 54.1525C121.481 68.5508 121.369 82.9491 121.257 97.3474C116.458 97.1241 111.882 95.8964 107.529 93.7757C104.069 91.9899 101.167 89.4227 99.046 86.1859C96.0324 81.4981 94.8046 75.9173 94.3581 70.3366C93.9117 64.421 93.9117 58.6171 94.1349 52.7015C94.2465 48.1253 94.8046 43.5491 96.0324 39.1961C96.9253 35.736 98.5995 32.6108 100.832 29.8205C102.952 27.2533 105.631 25.1326 108.756 23.7933ZM120.476 24.1281C115.23 24.6862 109.761 26.0256 105.631 29.4856C102.952 31.7179 100.943 34.6199 99.8273 37.8567C97.7066 43.5491 97.3717 49.6879 97.2601 55.7151C97.0369 61.4074 97.2601 67.0998 97.8182 72.6805C98.2647 76.3638 99.3808 79.9355 101.055 83.2839C102.283 85.5162 103.957 87.4137 105.854 88.9763C109.649 91.9899 114.56 93.3292 119.248 93.8873C119.471 81.8329 119.583 69.8901 119.806 57.8358C119.918 56.1615 119.918 54.5989 119.695 52.9247C119.137 49.4646 118.579 46.0046 118.02 42.6562H116.123C116.569 45.893 117.128 49.0182 117.686 52.255C117.909 53.1479 118.02 54.0409 118.02 54.9338L117.351 91.7666C113.333 91.2086 109.426 89.5343 106.301 86.9672C102.952 84.0652 101.167 79.8239 100.274 75.5825C99.2692 70.1134 98.9343 64.6443 99.1576 59.0635C99.046 53.8176 99.3808 48.5717 100.274 43.4375C100.943 39.1961 102.841 35.178 105.854 32.0528C109.203 29.0392 113.333 27.0301 117.797 26.472C122.262 25.8023 126.726 25.6907 131.191 26.2488C134.651 26.5836 137.999 27.4765 141.013 29.0392C143.803 30.4901 146.147 32.7224 147.71 35.4012C149.607 38.8613 150.724 42.7678 151.058 46.6743C151.505 51.9202 151.728 57.2777 151.505 62.6352C151.617 67.6579 151.058 72.5689 149.942 77.3683C149.049 80.94 147.04 84.2884 144.362 86.744C141.794 88.8647 138.669 90.4273 135.432 91.0969C135.432 91.7666 135.432 92.5479 135.544 93.2176C137.776 92.6596 139.897 91.8782 142.018 90.7621C145.031 89.1995 147.487 86.8556 149.273 83.9536C151.058 80.94 152.286 77.5916 152.844 74.0199C153.514 69.1088 153.849 64.1978 153.849 59.1751C153.849 53.1479 153.849 47.0091 152.398 41.0935C151.617 37.2986 149.831 33.8386 147.264 30.9366C144.027 27.6998 140.009 25.4675 135.544 24.5746C130.521 23.7933 125.499 23.57 120.476 24.1281ZM121.481 27.6998C116.904 28.1462 112.105 29.2624 108.422 32.1644C105.52 34.5083 103.511 37.7451 102.506 41.3168C101.167 46.1162 100.943 51.0273 100.943 55.9383C100.72 61.4074 100.943 66.8766 101.501 72.2341C102.171 76.3638 103.287 80.6052 105.966 83.842C108.533 86.744 111.882 88.6414 115.565 89.4227C115.788 77.8148 116.123 66.2069 116.346 54.5989C116.346 53.706 116.235 52.9247 116.011 52.0318C115.565 48.9066 115.118 45.7814 114.449 42.6562H112.44V40.9819H131.079C130.745 40.5355 130.298 39.9774 129.963 39.5309C124.941 39.5309 119.918 39.5309 114.895 39.5309C115.565 39.0845 116.346 38.638 117.016 38.1916C121.034 38.1916 124.941 38.1916 128.847 38.1916C128.512 37.7451 128.066 37.2986 127.731 36.7406H119.025C119.918 36.1825 120.699 35.2896 121.927 35.4012C123.49 35.4012 125.052 35.4012 126.615 35.4012L125.499 33.9502H123.266C123.155 33.2805 123.266 32.6108 123.378 32.0528C124.494 30.9366 126.392 30.9366 127.508 32.0528C127.508 32.6108 127.508 33.2805 127.508 33.9502C131.079 36.2941 134.651 38.638 138.223 40.8703C138.223 41.4284 138.223 41.9865 138.223 42.5445H136.214C135.544 46.1162 134.986 49.7995 134.316 53.4828C134.205 53.8176 134.205 54.2641 134.205 54.5989C134.539 66.2069 134.986 77.8148 135.321 89.4227C138.558 88.6414 141.571 86.9672 143.915 84.6233C146.371 81.8329 148.045 78.4845 148.715 74.8012C149.496 70.0018 149.942 65.0907 149.831 60.1797C149.831 54.5989 149.942 48.9066 148.826 43.4375C148.268 39.7542 146.594 36.1825 144.027 33.3921C141.348 30.825 137.888 29.0392 134.205 28.3695C130.186 27.5882 125.945 27.3649 121.481 27.6998ZM124.494 46.0046C125.164 45.4465 126.057 45.5581 126.615 46.2278C126.95 46.6743 127.061 47.344 127.061 47.902C127.061 51.8086 127.061 55.6035 127.061 59.3984H125.387C124.941 60.8494 124.383 62.3003 123.936 63.7513C123.936 58.5054 123.936 53.2595 123.936 47.902C123.713 47.344 124.048 46.5627 124.494 46.0046Z" fill="#767575"/>
<path id="Vector_2" d="M22.3672 106.835H48.7083C48.7083 109.513 48.7083 112.192 48.7083 114.871H46.8108C46.5876 113.197 46.2527 111.634 45.6947 110.071C45.1366 109.178 44.1321 108.62 43.1275 108.62C41.3417 108.509 39.5559 108.62 37.77 108.62C37.77 117.103 37.77 125.474 37.77 133.957C37.77 134.85 37.8816 135.854 38.7746 136.301C40.0023 136.636 41.2301 136.747 42.4578 136.636V138.198C37.8816 138.087 33.3054 138.087 28.7292 138.198C28.7292 137.64 28.7292 137.194 28.7292 136.636C29.957 136.747 31.1848 136.636 32.4125 136.301C33.3054 135.854 33.3054 134.85 33.3054 133.957C33.3054 125.474 33.3054 117.103 33.3054 108.62C31.6312 108.62 29.8454 108.509 28.1712 108.62C27.055 108.62 26.0505 109.067 25.3808 110.071C24.8227 111.634 24.3763 113.308 24.2646 114.871H22.3672V106.835ZM53.8425 106.723C57.6374 106.723 61.4323 106.946 65.1156 106.723C67.906 106.611 70.808 106.723 73.5983 106.835C75.1609 106.946 76.7236 107.616 77.8397 108.844C78.7326 110.183 79.1791 111.746 79.1791 113.42C79.2907 115.54 78.621 117.661 77.2816 119.335C75.6074 120.786 73.4867 121.679 71.2544 121.903C73.3751 125.251 75.6074 128.488 77.8397 131.836C78.621 133.176 79.6255 134.403 80.6301 135.52C81.4114 136.301 82.5275 136.747 83.6437 136.747C83.6437 137.194 83.6437 137.752 83.6437 138.31C81.2998 138.198 79.0675 138.198 76.7236 138.31C74.3797 134.738 72.1474 131.167 69.6918 127.595C68.6873 126.144 67.6828 124.805 66.5666 123.577C65.6737 122.461 63.9995 122.795 62.7717 122.684C62.7717 126.479 62.7717 130.274 62.7717 134.069C62.7717 134.85 62.6601 135.966 63.553 136.412C64.7808 136.747 66.0085 136.859 67.2363 136.859C67.2363 137.305 67.2363 137.863 67.2363 138.422C62.7717 138.31 58.4187 138.31 53.9542 138.422C53.9542 137.863 53.9542 137.417 53.9542 136.859C55.1819 136.971 56.4097 136.747 57.6374 136.412C58.3071 136.078 58.3071 135.185 58.3071 134.627C58.3071 126.702 58.3071 118.889 58.3071 110.964C58.3071 110.295 58.3071 109.29 57.5258 108.955C56.4097 108.62 55.1819 108.509 53.9542 108.62C53.9542 107.727 53.9542 107.169 53.8425 106.723ZM62.8833 108.509V120.675C65.1156 120.786 67.2363 120.786 69.357 120.452C71.1428 120.34 72.817 119.335 73.71 117.773C74.4913 115.875 74.6029 113.755 74.0448 111.746C73.71 110.183 72.3706 108.955 70.808 108.732C68.1292 108.062 65.4505 108.397 62.8833 108.509ZM87.9966 106.723C91.1219 106.723 94.1354 106.946 97.2607 106.835C98.6 106.723 99.9394 106.835 101.279 106.723V108.286C100.163 108.174 98.9349 108.397 97.8187 108.62C96.9258 109.067 96.9258 110.183 96.9258 111.076C96.9258 118.442 96.9258 125.809 96.9258 133.287C96.8142 134.069 96.9258 134.961 97.2607 135.743C97.4839 136.189 97.9303 136.412 98.3768 136.524C99.3813 136.636 100.386 136.747 101.279 136.636V138.198C96.8142 138.087 92.4612 138.087 87.9966 138.198C87.9966 137.64 87.9966 137.194 87.9966 136.636C89.1128 136.747 90.2289 136.636 91.3451 136.301C92.238 135.854 92.3496 134.738 92.3496 133.957C92.3496 126.367 92.3496 118.777 92.3496 111.188C92.3496 110.295 92.3496 109.178 91.4567 108.732C90.3406 108.397 89.1128 108.286 87.9966 108.397C87.9966 107.727 87.9966 107.169 87.9966 106.723ZM107.864 106.723C110.543 106.835 113.222 106.835 115.9 106.723C122.374 115.206 128.736 123.688 135.21 132.171C135.21 125.139 135.21 118.108 135.21 111.076C135.21 110.295 135.21 109.178 134.428 108.732C133.312 108.397 132.196 108.286 130.968 108.286C130.968 107.727 130.968 107.281 130.968 106.723C132.977 106.723 135.098 106.835 137.219 106.835C138.781 106.835 140.344 106.723 141.795 106.723V108.286C140.79 108.286 139.786 108.286 138.781 108.509C138 108.844 137.888 109.848 137.888 110.629C137.888 119.782 137.888 128.934 137.888 137.975H133.982C127.62 129.269 121.146 120.675 114.673 111.969C114.673 119.224 114.673 126.59 114.673 133.845C114.673 134.627 114.673 135.743 115.565 136.189C116.682 136.524 117.798 136.636 118.914 136.524V138.087C115.231 137.975 111.547 137.975 107.864 138.087V136.524C108.98 136.636 110.096 136.524 111.212 136.189C111.994 135.854 112.105 134.85 112.105 134.069C112.105 126.367 112.105 118.666 112.105 111.076C112.105 110.183 112.105 109.178 111.324 108.62C110.32 108.062 109.092 108.286 107.976 108.174L107.864 106.723ZM147.934 106.723C151.059 106.723 154.184 106.946 157.421 106.835C158.649 106.723 159.988 106.835 161.216 106.723C161.216 107.281 161.216 107.727 161.216 108.286C159.988 108.174 158.872 108.286 157.756 108.62C156.863 109.067 156.863 110.183 156.863 111.076C156.863 118.666 156.863 126.256 156.863 133.957C156.863 134.85 156.975 135.966 157.867 136.301C158.984 136.636 160.1 136.747 161.328 136.636V138.198C156.863 138.087 152.51 138.087 148.045 138.198V136.636C149.162 136.747 150.278 136.636 151.394 136.301C152.287 135.966 152.398 134.738 152.398 133.957C152.398 126.367 152.398 118.777 152.398 111.188C152.398 110.295 152.398 109.178 151.505 108.732C150.389 108.397 149.162 108.286 148.045 108.397C147.934 107.727 147.934 107.169 147.934 106.723ZM166.462 106.835H192.803C192.803 109.513 192.803 112.192 192.803 114.871H190.905C190.682 113.197 190.347 111.634 189.789 110.071C189.231 109.067 188.115 108.509 186.999 108.62C185.213 108.509 183.539 108.62 181.753 108.62C181.753 116.991 181.753 125.363 181.753 133.734C181.753 134.627 181.753 135.854 182.758 136.301C183.985 136.636 185.213 136.747 186.441 136.636V138.198C181.865 138.087 177.288 138.087 172.712 138.198V136.636C173.94 136.747 175.168 136.636 176.395 136.301C177.288 135.854 177.288 134.738 177.288 133.957C177.288 125.474 177.288 117.103 177.288 108.62C175.279 108.509 173.27 108.62 171.261 108.844C170.257 108.955 169.475 109.625 169.141 110.629C168.694 112.08 168.359 113.531 168.248 114.982H166.35L166.462 106.835ZM197.379 106.723C200.727 106.723 204.076 106.946 207.424 106.723C208.652 106.723 209.992 106.723 211.219 106.611C211.219 107.058 211.219 107.616 211.219 108.062C210.103 107.951 208.987 108.174 207.871 108.62C207.313 109.067 207.201 110.071 207.648 110.629C209.992 114.424 212.335 118.331 214.679 122.126L220.483 111.969C220.93 111.299 221.376 110.629 221.599 109.848C221.711 109.29 221.599 108.732 221.041 108.509C220.148 108.174 219.256 108.062 218.363 108.062V106.611C220.26 106.611 222.046 106.723 223.943 106.723C225.506 106.723 227.069 106.611 228.631 106.611C228.631 107.058 228.631 107.504 228.631 107.951C227.738 108.062 226.957 108.286 226.176 108.732C225.283 109.29 224.613 110.071 224.167 110.964C222.046 114.536 219.702 117.996 217.581 121.568C216.688 122.795 215.907 124.246 215.572 125.697C215.461 127.037 215.461 128.265 215.461 129.604C215.461 131.278 215.349 132.841 215.572 134.515C215.572 135.185 215.907 135.854 216.577 136.078C217.805 136.301 218.921 136.412 220.148 136.412V137.975C215.572 137.863 210.996 137.863 206.308 137.975V136.412C207.536 136.524 208.875 136.412 209.992 136.078C210.773 135.743 210.884 134.738 210.884 133.957C210.884 131.39 210.884 128.823 210.884 126.256C210.996 125.251 210.773 124.246 210.215 123.354C207.759 119.447 205.304 115.541 202.848 111.634C202.179 110.406 201.174 109.402 199.946 108.732C199.165 108.397 198.272 108.174 197.267 108.062L197.379 106.723ZM154.742 147.127C156.751 146.904 158.872 147.127 160.769 147.909C160.769 149.248 160.769 150.588 160.769 151.815H159.095C159.095 151.034 158.984 150.141 158.76 149.36C158.426 148.69 157.756 148.355 157.086 148.355C155.858 148.132 154.631 148.355 153.626 149.137C152.733 149.918 152.733 151.257 153.514 152.15C153.626 152.262 153.626 152.262 153.738 152.373C154.965 153.043 156.305 153.713 157.756 154.048C159.207 154.606 160.769 155.387 161.216 156.95C161.774 158.624 161.328 160.41 160.1 161.637C158.984 162.419 157.756 162.977 156.305 162.977H154.296C152.956 162.865 151.617 162.53 150.389 161.972C150.389 160.521 150.389 159.07 150.389 157.731H152.287C152.287 158.624 152.398 159.517 152.622 160.41C152.845 161.191 153.626 161.637 154.407 161.637C155.635 161.972 156.975 161.749 158.091 160.968C159.207 160.075 159.43 158.401 158.426 157.284C158.314 157.061 158.091 156.95 157.867 156.726C155.97 155.499 153.403 155.387 151.729 153.824C150.501 152.597 150.278 150.476 151.394 149.025C152.063 148.02 153.291 147.239 154.742 147.127ZM42.7927 147.239C44.9134 147.239 47.034 147.239 49.2663 147.239V148.467C48.7083 148.467 48.1502 148.467 47.5921 148.578C47.1457 148.69 47.2573 149.137 47.2573 149.471C47.2573 152.039 47.2573 154.606 47.2573 157.284C47.1457 158.401 47.3689 159.628 48.0386 160.521C48.9315 161.303 50.1593 161.749 51.2754 161.637C52.5032 161.749 53.6193 161.303 54.5122 160.521C55.1819 159.628 55.6284 158.401 55.5168 157.284C55.5168 154.829 55.5168 152.262 55.5168 149.695C55.4051 149.36 55.6284 148.802 55.1819 148.578C54.5122 148.467 53.8425 148.355 53.1728 148.467C53.1728 148.02 53.1728 147.686 53.1728 147.351C55.1819 147.351 57.0794 147.351 58.9768 147.351C58.9768 147.686 58.9768 148.132 58.9768 148.467C58.3071 148.467 57.7491 148.578 57.191 148.802C57.0794 149.248 57.0794 149.583 57.0794 150.029C57.0794 152.485 57.0794 154.941 57.0794 157.396C57.191 158.847 56.7445 160.298 55.74 161.414C54.5122 162.419 53.0612 162.977 51.4986 162.977H49.4896C48.2618 162.865 47.1457 162.419 46.1411 161.637C45.2482 160.744 44.8017 159.628 44.8017 158.401C44.6901 155.164 44.9134 152.039 44.6901 148.802C44.1321 148.467 43.4624 148.578 42.7927 148.467C42.7927 148.132 42.7927 147.686 42.7927 147.239ZM63.553 148.578C63.553 148.132 63.553 147.797 63.553 147.351C64.8924 147.462 66.2318 147.462 67.5711 147.351C70.5847 151.257 73.4867 155.275 76.5003 159.182C76.5003 156.057 76.5003 152.931 76.5003 149.806C76.5003 149.471 76.5003 149.025 76.1655 148.69C75.6074 148.578 75.0493 148.467 74.4913 148.467C74.4913 148.02 74.4913 147.686 74.4913 147.239C76.2771 147.239 78.0629 147.239 79.8488 147.239C79.8488 147.574 79.8488 148.02 79.8488 148.355C79.2907 148.355 78.8442 148.467 78.2862 148.578C77.9513 148.802 78.0629 149.36 77.9513 149.695C77.9513 154.048 77.9513 158.289 77.9513 162.642C77.3932 162.642 76.8352 162.642 76.1655 162.642L67.0131 150.476C67.0131 153.713 67.0131 156.95 67.0131 160.186C67.0131 160.633 67.0131 161.191 67.4595 161.303C68.0176 161.414 68.4641 161.414 69.0221 161.414V162.53C67.2363 162.53 65.3389 162.53 63.553 162.53V161.303C64.1111 161.191 64.7808 161.414 65.3389 161.079C65.4505 160.744 65.5621 160.298 65.5621 159.852C65.5621 156.391 65.5621 152.931 65.5621 149.471C65.5621 149.137 65.5621 148.578 65.2272 148.355C64.6692 148.244 64.1111 148.132 63.553 148.244M84.983 147.239C87.1037 147.239 89.336 147.239 91.4567 147.239C91.4567 147.686 91.4567 148.02 91.4567 148.467C90.787 148.467 89.4476 148.244 89.4476 149.36C89.4476 153.043 89.4476 156.615 89.4476 160.298C89.4476 160.633 89.336 161.191 89.7825 161.414C90.3406 161.526 90.8986 161.637 91.4567 161.526V162.754C89.336 162.754 87.1037 162.642 84.983 162.754V161.637C85.6527 161.749 86.2108 161.637 86.8805 161.414C87.1037 160.968 87.1037 160.521 87.1037 159.963C87.1037 156.503 87.1037 152.931 87.1037 149.471C87.1037 148.355 85.7644 148.69 85.0947 148.578L84.983 147.239ZM95.8097 147.351C97.9304 147.351 100.163 147.351 102.283 147.351V148.467C101.725 148.578 101.167 148.578 100.497 148.69C100.497 149.248 100.609 149.806 100.832 150.364C101.948 153.49 103.065 156.503 104.181 159.628C105.185 156.726 106.19 153.936 107.194 151.146C107.418 150.476 107.864 149.583 107.641 148.913C107.083 148.69 106.636 148.578 105.967 148.467V147.351C107.752 147.351 109.427 147.351 111.101 147.351V148.467C110.431 148.69 109.65 148.802 109.538 149.471C107.864 153.936 106.078 158.289 104.404 162.754C103.846 162.754 103.176 162.754 102.618 162.754C101.056 158.512 99.493 154.271 97.8187 150.029C97.7071 149.471 97.3723 149.025 97.0374 148.69C96.591 148.578 96.2561 148.578 95.8097 148.467C95.8097 148.132 95.8097 147.686 95.8097 147.351ZM115.119 147.351C119.137 147.351 123.267 147.351 127.285 147.351C127.285 148.802 127.285 150.141 127.285 151.592H125.499C125.499 150.811 125.388 150.029 125.164 149.248C124.941 148.802 124.383 148.69 123.937 148.69C122.374 148.69 120.923 148.69 119.36 148.69V154.159C120.365 154.271 121.258 154.159 122.262 154.048C123.044 153.713 122.82 152.708 122.932 151.927H124.271C124.271 153.824 124.271 155.722 124.271 157.508H122.932C122.82 156.838 122.932 156.057 122.486 155.499C121.481 155.275 120.365 155.164 119.36 155.275V161.303C120.7 161.303 122.151 161.303 123.49 161.303C124.048 161.303 124.718 161.191 125.053 160.633C125.276 159.74 125.499 158.847 125.499 157.954H127.062V162.754H114.896V161.526C115.565 161.526 116.235 161.414 116.905 161.303C117.016 157.508 116.905 153.601 117.016 149.806C116.905 149.471 117.128 148.913 116.682 148.69C116.124 148.578 115.565 148.467 115.007 148.578C115.007 148.132 115.007 147.797 115.007 147.351M132.308 147.351C134.428 147.351 136.437 147.351 138.558 147.351C140.009 147.239 141.572 147.351 143.023 147.797C143.916 148.244 144.474 149.025 144.585 150.029C144.809 151.146 144.585 152.373 143.916 153.378C143.134 154.271 142.13 154.829 141.014 154.941C142.241 156.838 143.581 158.847 144.92 160.744C145.367 161.303 146.036 161.637 146.706 161.749C146.706 162.084 146.706 162.53 146.706 162.865C145.59 162.865 144.362 162.865 143.246 162.865C141.683 160.521 140.344 158.177 138.558 155.945C138.223 155.387 137.442 155.387 136.772 155.387C136.772 157.396 136.661 159.517 136.884 161.526C137.554 161.749 138.223 161.749 138.893 161.749C138.893 162.195 138.893 162.53 138.893 162.977C136.772 162.865 134.54 162.865 132.419 162.977C132.419 162.53 132.419 162.195 132.419 161.861C133.089 161.749 133.87 161.972 134.428 161.526C134.54 161.191 134.54 160.968 134.54 160.633C134.54 157.173 134.54 153.601 134.54 150.029C134.54 149.695 134.652 149.248 134.317 149.025C133.759 148.802 133.089 148.802 132.419 148.802C132.419 148.132 132.419 147.797 132.308 147.351ZM136.884 148.69C136.884 150.476 136.884 152.262 136.884 154.159C138.223 154.271 139.563 154.159 140.79 153.824C141.683 153.378 142.13 152.373 142.018 151.48C142.018 150.588 141.907 149.471 141.014 149.025C139.674 148.355 138.335 148.69 136.884 148.69ZM166.015 147.351C168.136 147.351 170.368 147.351 172.601 147.351V148.578C171.931 148.69 170.592 148.355 170.592 149.36C170.48 152.931 170.592 156.503 170.592 160.075C170.703 160.521 170.48 161.191 171.038 161.414C171.596 161.526 172.154 161.526 172.712 161.526C172.712 161.972 172.712 162.307 172.712 162.754C170.48 162.642 168.359 162.642 166.239 162.754C166.239 162.307 166.239 161.972 166.239 161.526C166.908 161.414 168.248 161.749 168.248 160.744C168.248 157.061 168.248 153.378 168.248 149.695C168.248 149.36 168.359 148.802 167.913 148.578C167.355 148.467 166.797 148.355 166.239 148.467C166.127 148.132 166.127 147.797 166.015 147.351ZM176.619 147.351C181.083 147.351 185.548 147.351 190.013 147.351C190.013 148.802 190.013 150.141 190.013 151.592H188.561C188.338 150.699 188.45 149.471 187.669 148.802C186.664 148.578 185.66 148.467 184.543 148.578C184.543 152.597 184.543 156.615 184.543 160.744C184.543 161.861 185.994 161.414 186.664 161.526V162.642C184.432 162.642 182.199 162.642 179.967 162.642V161.414C180.637 161.303 182.088 161.637 182.088 160.633C182.199 156.615 182.088 152.597 182.088 148.467C181.195 148.355 180.302 148.467 179.297 148.578C178.963 148.69 178.628 148.913 178.516 149.248C178.293 150.029 178.181 150.699 178.07 151.48H176.619V147.351ZM193.584 147.351C195.816 147.351 198.16 147.351 200.393 147.351V148.467C199.835 148.578 198.718 148.355 198.607 149.137C199.611 151.034 200.839 152.82 201.955 154.717C202.96 152.931 204.076 151.146 204.969 149.36C205.415 148.467 204.076 148.578 203.518 148.467C203.518 148.132 203.518 147.686 203.518 147.351C205.192 147.351 206.866 147.351 208.652 147.351C208.652 147.686 208.652 148.02 208.652 148.467C207.871 148.467 207.09 148.913 206.643 149.583C205.415 151.592 204.076 153.601 202.848 155.61C202.179 156.615 202.402 157.842 202.402 159.07C202.29 159.852 202.402 160.521 202.625 161.303C203.183 161.749 203.964 161.526 204.634 161.637C204.634 162.084 204.634 162.419 204.634 162.754C202.402 162.754 200.058 162.754 197.826 162.754V161.526C198.495 161.414 199.946 161.749 199.946 160.744C199.946 159.182 200.058 157.619 199.946 156.057C199.5 155.164 199.053 154.382 198.495 153.601C197.602 152.15 196.709 150.699 195.816 149.36C195.258 148.69 194.477 148.244 193.584 148.244V147.351Z" fill="white"/>
</g>
</svg>
