<svg width="196" height="23" viewBox="0 0 196 23" fill="none" xmlns="http://www.w3.org/2000/svg">
<g clip-path="url(#clip0_9621_5661)">
<path d="M22.8541 20.099H19.5066C18.9162 20.099 18.5479 19.9043 18.055 19.5582L12.1724 14.5935H4.59453C4.44828 14.5935 4.35078 14.6908 4.35078 14.8369V19.2337C4.35078 19.7745 4.00412 20.0936 3.48953 20.0936H0.662031C0.120365 20.0936 -0.199219 19.7745 -0.199219 19.2337V3.75553C-0.199219 3.21471 0.120365 2.89563 0.662031 2.89563H16.5816C21.9225 2.89563 24.0891 5.91879 24.0891 8.74185C24.0891 11.3215 22.2691 14.0743 17.887 14.5178L23.2279 19.039C23.8399 19.5528 23.672 20.0936 22.8595 20.0936L22.8541 20.099ZM4.59453 10.2237H16.3054C18.667 10.2237 19.4037 9.98033 19.4037 8.74727C19.4037 7.5142 18.667 7.2492 16.3054 7.2492H4.59453C4.44828 7.2492 4.35078 7.34655 4.35078 7.49257V9.97491C4.35078 10.1209 4.44828 10.2183 4.59453 10.2183V10.2237Z" fill="white"/>
<path d="M29.5156 19.2392V3.76102C29.5156 3.2202 29.8352 2.90112 30.3769 2.90112H51.464C51.9785 2.90112 52.3252 3.2202 52.3252 3.76102V6.38939C52.3252 6.9302 51.9785 7.24928 51.464 7.24928H34.3148C34.1685 7.24928 34.071 7.34663 34.071 7.49265V9.35846C34.071 9.50448 34.1685 9.60184 34.3148 9.60184H50.2615C50.8031 9.60184 51.1227 9.94796 51.1227 10.4888V12.6737C51.1227 13.2145 50.8031 13.5606 50.2615 13.5606H34.3148C34.1685 13.5606 34.071 13.658 34.071 13.804V15.4751C34.071 15.6211 34.1685 15.7185 34.3148 15.7185H51.464C51.9785 15.7185 52.3252 16.0375 52.3252 16.5784V19.2338C52.3252 19.7746 51.9785 20.0937 51.464 20.0937H30.3769C29.8352 20.0937 29.5156 19.7746 29.5156 19.2338V19.2392Z" fill="white"/>
<path d="M58.3492 19.2391V3.7609C58.3492 3.22008 58.6688 2.901 59.2104 2.901H62.0379C62.5525 2.901 62.8992 3.22008 62.8992 3.7609V15.4804C62.8992 15.6264 62.9967 15.7238 63.1429 15.7238H79.3821C79.9238 15.7238 80.2433 16.0428 80.2433 16.5836V19.2391C80.2433 19.7799 79.9238 20.099 79.3821 20.099H59.205C58.6633 20.099 58.3438 19.7799 58.3438 19.2391H58.3492Z" fill="white"/>
<path d="M86.3984 19.2391V3.7609C86.3984 3.22008 86.718 2.901 87.2597 2.901H108.347C108.861 2.901 109.208 3.22008 109.208 3.7609V6.38926C109.208 6.93008 108.861 7.24916 108.347 7.24916H91.1976C91.0514 7.24916 90.9539 7.34651 90.9539 7.49253V9.35834C90.9539 9.50436 91.0514 9.60171 91.1976 9.60171H107.144C107.686 9.60171 108.006 9.94784 108.006 10.4887V12.6735C108.006 13.2144 107.686 13.5605 107.144 13.5605H91.1976C91.0514 13.5605 90.9539 13.6578 90.9539 13.8039V15.475C90.9539 15.621 91.0514 15.7183 91.1976 15.7183H108.347C108.861 15.7183 109.208 16.0374 109.208 16.5782V19.2337C109.208 19.7745 108.861 20.0935 108.347 20.0935H87.2597C86.718 20.0935 86.3984 19.7745 86.3984 19.2337V19.2391Z" fill="white"/>
<path d="M140.872 20.099H137.205C136.761 20.099 136.392 19.9529 136.17 19.5581L134.177 16.6594H121.058L119.064 19.5581C118.821 19.9529 118.474 20.099 118.03 20.099H114.363C113.648 20.099 113.404 19.6339 113.821 19.066L124.996 3.38774C125.294 2.99294 125.613 2.84692 126.079 2.84692H129.156C129.621 2.84692 129.941 2.99294 130.239 3.38774L141.386 19.066C141.831 19.6339 141.581 20.099 140.872 20.099ZM131.62 12.971L127.634 7.19508L123.62 12.971H131.62Z" fill="white"/>
<path d="M144.606 18.4549C144.162 18.1574 144.038 17.5463 144.336 17.0542L145.294 15.4317C145.516 15.0153 146.107 14.9666 146.573 15.1613C147.629 15.6048 151.664 16.1185 156.713 16.1185H157.011C162.151 16.1185 163.456 15.4804 163.456 14.9125C163.456 14.1283 161.046 13.9769 156.149 13.5118C148.003 12.7493 144.141 11.8894 144.141 8.05498C144.141 3.97723 148.301 2.59814 155.044 2.59814H155.656C162.303 2.59814 165.596 3.95018 166.804 4.68569C167.373 5.03181 167.373 5.4212 166.999 6.10804L165.991 7.97386C165.721 8.43896 165.255 8.36865 164.784 8.16855C163.527 7.72508 160.526 6.76784 155.949 6.76784H155.331C149.476 6.76784 148.81 7.50334 148.81 7.94681C148.81 8.77967 150.998 8.97978 156.464 9.54223C161.804 10.0344 168.229 10.3048 168.229 14.8747C168.229 18.9038 163.408 20.3802 156.859 20.3802H156.561C149.081 20.3802 145.858 19.2499 144.601 18.4387L144.606 18.4549Z" fill="white"/>
<path d="M173.395 19.2391V3.7609C173.395 3.22008 173.714 2.901 174.256 2.901H195.343C195.857 2.901 196.204 3.22008 196.204 3.7609V6.38926C196.204 6.93008 195.857 7.24916 195.343 7.24916H178.194C178.047 7.24916 177.95 7.34651 177.95 7.49253V9.35834C177.95 9.50436 178.047 9.60171 178.194 9.60171H194.14C194.682 9.60171 195.002 9.94784 195.002 10.4887V12.6735C195.002 13.2144 194.682 13.5605 194.14 13.5605H178.194C178.047 13.5605 177.95 13.6578 177.95 13.8039V15.475C177.95 15.621 178.047 15.7183 178.194 15.7183H195.343C195.857 15.7183 196.204 16.0374 196.204 16.5782V19.2337C196.204 19.7745 195.857 20.0935 195.343 20.0935H174.256C173.714 20.0935 173.395 19.7745 173.395 19.2337V19.2391Z" fill="white"/>
</g>
<defs>
<clipPath id="clip0_9621_5661">
<rect width="196" height="23" fill="white"/>
</clipPath>
</defs>
</svg>
