<svg width="72" height="94" viewBox="0 0 72 94" fill="none" xmlns="http://www.w3.org/2000/svg">
<path fill-rule="evenodd" clip-rule="evenodd" d="M3.07649 85.9695C1.81649 88.0695 1.59651 90.3695 3.96651 89.7095C3.39651 91.5295 2.67651 94.6095 4.46651 93.8795C7.17651 90.2595 9.25649 87.8395 12.0765 84.7795C13.9565 83.0595 13.1465 86.0895 13.9165 87.3495C14.1165 87.6795 14.5965 87.7195 14.8565 87.4195C18.1265 83.6595 20.4065 80.6495 27.3265 79.2795C30.5965 78.6295 32.9865 74.2695 33.1665 70.6995C33.2365 69.3695 33.4665 68.0395 34.0565 66.8395C35.6065 63.6995 36.1665 63.8395 37.6265 62.1295C39.2765 60.1995 41.4165 58.0995 41.8365 57.1395C41.5265 56.3795 40.0465 58.1795 37.8465 57.8995C35.8765 57.6495 30.9565 57.0295 29.0765 61.7595C28.8265 61.3495 22.9465 51.4995 18.9565 46.6395C15.7365 42.7095 6.01649 34.0495 4.76649 33.3595C4.33649 33.1195 3.80649 33.2895 3.57649 33.7195C3.15649 34.4895 5.62649 40.4895 3.51649 41.6995C2.65649 42.1895 2.4165 43.2895 3.1765 43.9295C5.8865 46.2295 3.34648 47.1095 2.06648 47.8395C1.71648 48.0395 1.64649 48.5095 1.88649 48.8395C3.03649 50.4195 5.40649 51.9795 6.04649 52.6895C6.18649 52.8495 6.15648 53.1195 6.00648 53.2695C4.77648 54.4595 4.5065 53.5295 2.5265 53.5095C2.3765 53.5095 2.23649 53.6395 2.26649 53.7795C2.45649 54.7995 5.55648 57.1995 6.56648 56.9795C6.89648 58.5895 4.56649 59.0095 3.88649 59.6395C3.70649 59.7995 3.7565 60.1095 3.9265 60.2795C5.3765 61.7295 6.98648 61.8195 7.81648 61.8195C7.78648 62.5795 6.27648 63.8295 5.65648 64.1095C5.47648 64.1895 5.33649 64.3595 5.38649 64.5495C5.66649 65.4495 8.2565 66.0295 8.9265 65.6795C9.9065 67.0595 7.40649 68.0395 8.79649 69.4695C10.2965 70.3695 10.7065 70.6295 11.0565 71.6495C12.8965 75.2495 6.6765 80.4195 1.73649 82.4895C-0.203505 83.2995 -1.3935 86.2995 3.0565 85.9495L3.07649 85.9695Z" fill="#F4EFE7"/>
<path fill-rule="evenodd" clip-rule="evenodd" d="M68.3197 27.81C65.8397 26.67 63.6197 27.79 62.1997 27.44C56.8597 20.18 57.0597 4.85 50.0597 0C48.9997 0.57 50.4897 3.73 50.8897 5.86C50.8197 6.57 46.1298 10.46 49.2198 13.01C46.7498 15.28 44.9097 15.83 44.4597 18.24C43.5697 23.01 47.2797 28.57 48.0297 34.95C46.1397 38.91 37.2897 40.05 35.0597 41.63C34.8197 41.8 34.7798 42.14 34.9398 42.39C35.7498 43.64 36.3597 44.81 37.0897 45.71C37.3897 46.08 37.9297 46.16 38.3197 45.87C41.9197 43.17 45.0297 39.32 49.9997 39.4C53.9198 39.47 58.0197 39.92 63.8897 36.55C65.8897 35.4 70.3097 29.98 71.2797 28.11C70.5097 27.02 69.8197 28.49 68.3197 27.8V27.81Z" fill="#F4EFE7"/>
</svg>
